<svg xmlns="http://www.w3.org/2000/svg" width="680" height="420" viewBox="0 0 680 420"><defs><linearGradient id="sky" x1="0" x2="1" y1="0" y2="1"><stop stop-color="#e7fff4"/><stop offset="1" stop-color="#fff4e6"/></linearGradient></defs><rect width="680" height="420" rx="34" fill="url(#sky)"/><path d="M78 324c98-48 199-56 302-27 74 21 144 20 222-21" stroke="#1f6f5b" stroke-width="18" stroke-linecap="round" fill="none" opacity=".25"/><circle cx="540" cy="86" r="48" fill="#f4a261" opacity=".8"/><path d="M245 246c0-58 45-104 101-104 43 0 82 27 96 68 37 0 68 30 68 68v15H230v-47h15z" fill="#ffffff" stroke="#d8e2ec" stroke-width="4"/><circle cx="331" cy="190" r="52" fill="#8b5e3c"/><path d="M282 168c-18-38-59-41-72-17-11 20 12 58 51 58 12 0 22-9 21-41z" fill="#6f472b"/><path d="M382 168c18-38 59-41 72-17 11 20-12 58-51 58-12 0-22-9-21-41z" fill="#6f472b"/><circle cx="312" cy="191" r="7" fill="#172033"/><circle cx="350" cy="191" r="7" fill="#172033"/><path d="M329 210c8 8 17 8 25 0" stroke="#172033" stroke-width="5" stroke-linecap="round" fill="none"/><path d="M430 226c70-72 116-71 139-28" stroke="#1f6f5b" stroke-width="8" stroke-linecap="round" fill="none"/><path d="M515 186l31 15" stroke="#172033" stroke-width="7" stroke-linecap="round"/><path d="M242 292v53M326 292v53M430 292v53M496 292v53" stroke="#8b5e3c" stroke-width="16" stroke-linecap="round"/><circle cx="104" cy="118" r="18" fill="#1f6f5b" opacity=".14"/><circle cx="136" cy="92" r="10" fill="#1f6f5b" opacity=".14"/><circle cx="592" cy="171" r="12" fill="#1f6f5b" opacity=".14"/></svg>
